<svg xmlns="http://www.w3.org/2000/svg" viewBox="0 0 800 360"><rect width="800" height="360" fill="#071a12"/><g transform="translate(400 145)"><path d="M-80-48c42-36 95-38 128-4-24 10-42 29-55 55-20-12-42-19-73-15z" fill="#00a651"/><path d="M-42 16c19 0 37 7 53 20-19 28-48 45-81 43 5-23 14-44 28-63z" fill="#b7e83b"/><path d="M-5-36c25 4 49 15 69 33-13 13-25 29-33 48-18-11-33-26-44-44 1-13 4-25 8-37z" fill="#e52b2b"/></g><text x="400" y="238" text-anchor="middle" font-family="Arial" font-size="34" font-weight="900" fill="#fff" letter-spacing="3">PERTAMINA</text><text x="400" y="278" text-anchor="middle" font-family="Arial" font-size="28" font-weight="800" fill="#b7e83b" letter-spacing="4">PATRA NIAGA</text><text x="400" y="315" text-anchor="middle" font-family="Arial" font-size="11" fill="#9fb1a8" letter-spacing="5">ENERGY EXPERIENCE</text></svg>